<svg width="22" height="19" xmlns="http://www.w3.org/2000/svg">

 <g>
  <title>background</title>
  <rect fill="none" id="canvas_background" height="402" width="582" y="-1" x="-1"/>
 </g>
 <g>
  <title>Layer 1</title>
  <path id="svg_1" fill="black" d="m20.2991,9.78586c2.2679,-2.24248 2.2679,-5.88373 0,-8.104c-2.268,-2.24248 -5.9505,-2.24248 -8.2185,0l-1.1002,1.11014l-1.10033,-1.08794c-2.26792,-2.26468 -5.9505,-2.26468 -8.19597,-0.0222c-1.10028,1.08793 -1.6841,2.53111 -1.6841,4.0631c0,1.53199 0.60628,2.97517 1.6841,4.0631l9.2963,9.19194l9.3187,-9.21414zm-18.862,-4.0409c0,-1.15454 0.4491,-2.22027 1.27992,-3.01957c0.85328,-0.84371 1.95356,-1.26556 3.05384,-1.26556c1.10028,0 2.20056,0.42185 3.05384,1.26556l2.1557,2.10926l2.1556,-2.13147c1.6841,-1.6652 4.446,-1.6652 6.1077,0c0.8084,0.7993 1.2799,1.86503 1.2799,3.01958c0,1.15454 -0.4491,2.22027 -1.2799,3.01957l-8.2633,8.19277l-8.26338,-8.17057c-0.80837,-0.8215 -1.27992,-1.88723 -1.27992,-3.01957z"/>
  <path d="m7.684498,6.069508c0,0.026738 -0.006078,0.101201 -0.106952,0.213903c-0.114181,0.127571 -0.31454,0.431698 -0.481283,0.695186c-0.154657,0.24439 -0.213903,0.454545 -0.213903,0.588234l0.080214,0.106952l0.160428,0.080214l0.053476,0" id="svg_2" stroke-width="1.5" stroke="#000" fill="none"/>
  <path d="m10.171124,6.978597c-0.080214,0 -0.22518,-0.020505 -0.481282,0.133689c-0.394099,0.237279 -0.768408,0.549918 -1.069517,0.962565c-0.28933,0.396503 -0.37417,0.717525 -0.401069,0.962565c-0.026258,0.239204 0.123517,0.493306 0.374331,0.695186c0.283304,0.228031 0.61357,0.37832 0.989303,0.50802c0.399624,0.137948 0.852059,0.241093 1.363634,0.294117c0.532573,0.055201 0.962564,0.053476 1.363633,0.026738l0.347593,-0.160427l0.320855,-0.240642l0.160427,-0.160427" id="svg_3" stroke-width="1.5" stroke="#000" fill="none"/>
  <path d="m13.727267,7.780734c-0.080214,0 -0.267379,0 -0.588234,0.053476c-0.64171,0.106952 -1.398932,0.169037 -2.352937,0.374331c-0.919353,0.197838 -1.544716,0.410666 -1.978606,0.64171c-0.255278,0.135934 -0.326769,0.321019 -0.320854,0.427807c0.013389,0.241751 0.192909,0.53103 0.454544,0.748661c0.399125,0.331998 0.841547,0.50104 1.390372,0.64171c0.63019,0.161526 1.288365,0.193083 1.898392,-0.080214c0.690597,-0.309393 1.274171,-0.888219 1.577538,-1.417109c0.214925,-0.374701 0.209714,-0.783598 -0.106952,-1.096255c-0.538489,-0.531674 -1.459704,-0.672942 -2.219248,-0.50802c-1.116234,0.242371 -2.096549,0.878863 -2.887694,1.443848c-0.649136,0.463571 -0.74085,0.777929 -0.641711,0.882352c0.263586,0.277634 1.018137,0.391355 2.032082,0.320854c1.297989,-0.090251 2.614876,-0.592241 3.903736,-1.176468c1.198,-0.54304 1.816097,-1.035973 1.871655,-1.390372c0.054466,-0.347439 -0.331357,-0.707681 -0.748662,-0.7754c-0.659817,-0.107073 -1.372436,0.20046 -1.951868,0.802137c-0.819861,0.851336 -1.266384,1.693984 -1.122993,2.433151c0.086564,0.446226 0.644353,0.571209 1.176468,0.347592c0.786478,-0.33051 1.364861,-1.087358 1.871655,-1.92513c0.45185,-0.746948 0.591041,-1.330466 0.374331,-1.684489c-0.187805,-0.306805 -0.670984,-0.396933 -1.149731,-0.347593c-0.652035,0.067199 -1.237315,0.313543 -1.577538,0.614972c-0.24429,0.216436 -0.213903,0.427807 -0.026738,0.588234l0.427807,0.053476l0.053476,0" id="svg_4" stroke-width="1.5" stroke="#000" fill="none"/>
  <path d="m16.02673,4.812825c-0.187166,0 -0.571106,0.034157 -1.069517,0.294117c-0.573397,0.29907 -1.102297,0.613185 -1.470586,1.069517c-0.195832,0.242648 -0.224978,0.443469 -0.187165,0.481282c0.075626,0.075626 0.357756,-0.177979 0.695186,-0.561496c0.413831,-0.470354 0.835239,-0.901546 0.989303,-1.417109c0.131041,-0.438519 0.029985,-0.654904 -0.053475,-0.668448c-0.184749,-0.02998 -0.543095,0.003934 -0.935827,0.160428c-0.411152,0.163833 -0.813929,0.38909 -1.283421,0.534758c-0.365634,0.113444 -0.696136,0.334111 -0.775399,0.213903c-0.020816,-0.031568 0.06845,-0.033861 0.213903,-0.160428c0.242887,-0.211349 0.450138,-0.368281 0.50802,-0.50802c0.010232,-0.024703 -0.002097,-0.059094 -0.080214,-0.026738c-0.276184,0.114399 -0.614972,0.347593 -1.042779,0.50802c-0.213903,0.080214 -0.31989,0.090326 -0.26738,0.080214c0.14139,-0.027229 0.21746,-0.068704 0.320855,-0.106952c0.056074,-0.020743 0.024703,-0.03697 0,-0.026738c-0.034934,0.014471 -0.06382,0.135892 -0.133689,0.106951c-0.024702,-0.010232 0.059594,-0.072984 0.187165,-0.187165c0.140878,-0.126091 0.305436,-0.27883 0.454544,-0.401069c0.11697,-0.095892 0.233412,-0.24676 0.347593,-0.374331c0.100874,-0.112703 0.197462,-0.223851 0.267379,-0.320855c0.04422,-0.061351 0.086487,-0.111022 0.106952,-0.160427c0.014471,-0.034935 0.080215,-0.080214 0.13369,-0.13369c0.053475,-0.053476 0.131506,-0.163426 0.240642,-0.240641c0.078699,-0.055681 0.192824,-0.126046 0.267379,-0.187165c0.058485,-0.047946 0.122834,-0.120668 0.187165,-0.160427c0.071924,-0.044452 0.188931,-0.10368 0.240642,-0.13369c0.083382,-0.048388 0.12868,-0.085743 0.187165,-0.13369c0.074553,-0.06112 0.117296,-0.104748 0.187165,-0.133689c0.024703,-0.010232 0.080214,-0.026738 0.13369,-0.053476c0.053475,-0.026738 0.106952,-0.080214 0.160427,-0.106952c0.053476,-0.026738 0.105985,-0.056574 0.187166,-0.080214c0.105846,-0.030822 0.215284,-0.036344 0.320854,-0.053476c0.083462,-0.013544 0.187166,-0.053476 0.240642,-0.053476c0.106952,0 0.240642,0 0.454545,0c0.160427,0 0.294117,0 0.427807,0c0.080214,0 0.13369,0 0.187164,0c0.080214,0 0.187166,0 0.240643,0c0.053474,0 0.080214,0 0.106951,0c0.053476,0 0.106953,0 0.187166,0c0.080214,0 0.160427,0 0.213903,0c0.080214,0 0.13369,0 0.240641,0.026738c0.106951,0.026738 0.262407,0.094891 0.40107,0.13369c0.156624,0.043824 0.298311,0.095713 0.454544,0.160427c0.110472,0.045759 0.202827,0.069138 0.240641,0.106952c0.018906,0.018907 0.030809,0.006275 0.080214,0.026738c0.034935,0.01447 0.058451,0.045255 0.106953,0.080214c0.030676,0.02211 0.038782,0.065521 0.106951,0.13369c0.068169,0.068168 0.158243,0.136688 0.26738,0.213903c0.078699,0.055681 0.13369,0.13369 0.240641,0.240641c0.080214,0.080214 0.192825,0.152784 0.26738,0.213903c0.087727,0.071919 0.125469,0.138663 0.160427,0.187165c0.04422,0.061352 0.069803,0.084472 0.106953,0.160428c0.042355,0.086601 0.112946,0.131091 0.13369,0.187165c0.03825,0.103395 0.084072,0.212143 0.106951,0.267379c0.032356,0.078116 0.028904,0.109813 0.053476,0.213903c0.013737,0.058188 0.040625,0.134725 0.053474,0.213903c0.013544,0.083461 0.039932,0.130443 0.053476,0.213903c0.012848,0.079178 0,0.133689 0,0.213903c0,0.080214 0.026739,0.160428 0.026739,0.240641c0,0.053476 0,0.13369 0,0.213903c0,0.106952 0,0.187166 0,0.320855c0,0.053476 0.004084,0.161532 -0.026739,0.267379c-0.02364,0.08118 -0.066669,0.183918 -0.080214,0.267379c-0.017132,0.105571 -0.003492,0.163869 -0.026737,0.240641c-0.027937,0.092268 -0.083212,0.158244 -0.160427,0.267379c-0.055681,0.078699 -0.115248,0.20639 -0.187166,0.294117c-0.061119,0.074554 -0.08947,0.152552 -0.13369,0.213903c-0.034958,0.048502 -0.045256,0.085187 -0.080214,0.133689c-0.04422,0.061352 -0.073671,0.137219 -0.13369,0.240641c-0.048389,0.083382 -0.106951,0.160428 -0.13369,0.213903c-0.053476,0.106951 -0.117956,0.197968 -0.213903,0.320855c-0.093082,0.119218 -0.219137,0.264483 -0.320854,0.454545c-0.084633,0.15814 -0.107903,0.280861 -0.187166,0.401069c-0.020815,0.031567 -0.051008,0.040006 -0.160427,0.053475c-0.026537,0.003267 -0.04954,0.058105 -0.080214,0.080214c-0.048502,0.034959 -0.067926,0.054907 -0.080214,0.106952c-0.013737,0.058189 -0.064674,0.118152 -0.106953,0.160428c-0.084553,0.084552 -0.152782,0.139349 -0.213903,0.213903c-0.095892,0.11697 -0.160427,0.213903 -0.240641,0.294117c-0.106951,0.106952 -0.213903,0.187165 -0.294117,0.267379c-0.080214,0.080214 -0.126047,0.13935 -0.187166,0.213903c-0.071918,0.087727 -0.154978,0.111263 -0.240641,0.213903c-0.076618,0.091805 -0.082249,0.09672 -0.106951,0.106952c-0.034935,0.01447 -0.037035,0.116899 -0.106953,0.213903c-0.06633,0.092027 -0.192827,0.152782 -0.26738,0.213903c-0.029242,0.023973 -0.080214,0.080215 -0.133688,0.13369c-0.053476,0.053476 -0.15123,0.144091 -0.240643,0.213902c-0.122887,0.095947 -0.277326,0.170725 -0.374331,0.240642c-0.092027,0.066329 -0.187165,0.160428 -0.240641,0.213903c-0.080215,0.080214 -0.182429,0.192122 -0.294118,0.294117c-0.154204,0.140822 -0.347592,0.320854 -0.50802,0.481282c-0.160428,0.160428 -0.326974,0.313626 -0.454544,0.427807c-0.140879,0.126092 -0.213903,0.240642 -0.347593,0.374331c-0.106952,0.106952 -0.261628,0.273457 -0.374331,0.374331c-0.127571,0.114182 -0.225948,0.225948 -0.294117,0.294117c-0.06817,0.06817 -0.129376,0.138248 -0.213903,0.213903c-0.127571,0.114182 -0.261458,0.220099 -0.401069,0.347593c-0.154204,0.140821 -0.35671,0.285491 -0.50802,0.454544c-0.114182,0.127571 -0.24824,0.286928 -0.374331,0.427807c-0.114182,0.127571 -0.2117,0.19751 -0.240641,0.267379c-0.010232,0.024703 -0.016505,0.055511 -0.026738,0.080215c-0.014471,0.034934 -0.067927,0.081643 -0.080214,0.133689c-0.013737,0.058189 -0.062733,0.099077 -0.106952,0.160427c-0.034959,0.048502 -0.098731,0.111927 -0.13369,0.160429c-0.02211,0.030676 -0.061308,0.088045 -0.080214,0.106951c-0.018907,0.018908 -0.028773,0.016504 -0.053476,0.026737c-0.034935,0.014471 -0.034568,0.061308 -0.053475,0.080215c-0.018907,0.018908 -0.080214,0.026737 -0.053476,0.026737c0.026737,0 -0.015499,-0.137884 -0.080214,-0.294117c-0.06864,-0.16571 -0.168278,-0.286804 -0.267379,-0.401069c-0.087594,-0.100997 -0.153049,-0.193121 -0.240642,-0.294117c-0.024776,-0.028566 -0.093408,-0.130443 -0.106952,-0.213903c-0.012849,-0.079179 0,-0.160428 0,-0.26738c0,-0.106952 0.042376,-0.245139 0.13369,-0.454544c0.071694,-0.164412 0.172405,-0.332766 0.347592,-0.534759c0.099101,-0.114264 0.224656,-0.255176 0.347593,-0.374331c0.095998,-0.093045 0.21746,-0.122179 0.320855,-0.160428c0.056074,-0.020743 0.107642,-0.044909 0.160427,-0.053475c0.083462,-0.013544 0.134491,-0.01367 0.240642,-0.026738c0.109417,-0.01347 0.204478,-0.079479 0.320855,-0.106952c0.078068,-0.018429 0.112615,-0.016455 0.13369,0c0.086894,0.067845 0.034569,0.061307 0.053475,0.080214c0.018907,0.018907 0.012305,0.198458 -0.160427,0.374331c-0.225605,0.229707 -0.621852,0.446374 -0.90909,0.695187c-0.328994,0.284983 -0.548581,0.46876 -0.668447,0.614972c-0.06112,0.074553 -0.092481,0.098755 -0.106952,0.133689c-0.010233,0.024703 -0.031027,0.10597 -0.053475,0.213903c-0.033118,0.159233 -0.037277,0.348114 -0.026738,0.454544c0.013434,0.135674 0.098754,0.226171 0.133689,0.240643c0.024703,0.010233 0.043244,0.002035 0.053476,0.026737c0.01447,0.034935 0.039005,0.04528 0.053475,0.080214c0.010233,0.024704 0.026738,0.080214 0.053476,0.13369c0.026738,0.053476 0.066477,0.10224 0.080214,0.160427c0.006144,0.026024 0.029902,0.039356 0.053476,0.026739c0.084997,-0.04549 0.112186,-0.184271 0.213903,-0.374331c0.169269,-0.316281 0.320854,-0.668448 0.534758,-1.096255c0.187165,-0.374331 0.357302,-0.688921 0.561497,-1.016041c0.196694,-0.315104 0.447801,-0.673846 0.748661,-1.042779c0.287763,-0.352872 0.614973,-0.668448 0.962565,-1.016041c0.26738,-0.26738 0.554576,-0.514464 0.828876,-0.802137c0.287037,-0.301031 0.527813,-0.567915 0.7754,-0.828876c0.18218,-0.192021 0.320854,-0.294117 0.294117,-0.320855c-0.026737,-0.026738 -0.222514,0.230236 -0.561497,0.588234c-0.585116,0.617939 -1.302388,1.265532 -2.032082,1.898392c-0.687963,0.596666 -1.006849,0.944951 -1.203206,1.016042c-0.025141,0.009103 -0.020099,-0.022689 0.026737,-0.106952c0.15696,-0.282386 0.35649,-0.732355 0.721924,-1.336896c0.510283,-0.844165 1.067274,-1.712594 1.524062,-2.459888c0.425719,-0.696466 0.839143,-1.128018 0.721923,-1.283421c-0.016101,-0.021345 -0.111978,0.020364 -0.588234,0.401069c-0.756783,0.60495 -1.796494,1.527371 -2.860957,2.272723c-1.075225,0.752887 -1.621442,1.261827 -1.79144,1.149731c-0.044644,-0.029438 0.189049,-0.29245 0.614972,-0.7754c0.751997,-0.852682 1.628447,-1.873787 2.540102,-2.967909c0.959867,-1.151983 1.716825,-2.104498 2.245985,-2.673791c0.283182,-0.30466 0.319284,-0.329885 0.294117,-0.320855c-0.554252,0.198846 -1.142118,0.972542 -2.085558,1.684489c-1.114128,0.840753 -1.886185,1.384237 -2.326199,1.631013c-0.104294,0.058492 -0.111259,0.02381 0.053476,-0.213903c0.469166,-0.677007 1.122388,-1.551236 1.818178,-2.513364c0.561008,-0.775753 0.907235,-1.155288 0.962564,-1.363634c0.006863,-0.025842 -0.032366,-0.034532 -0.294117,0.160428c-0.656394,0.4889 -1.360285,1.141848 -2.272723,1.711227c-0.700629,0.437206 -0.970396,0.553665 -0.989303,0.534758c-0.018907,-0.018907 0.231248,-0.32926 0.614972,-0.748662c0.574453,-0.627864 1.088883,-1.214977 1.657751,-1.684489c0.354784,-0.292819 0.518252,-0.345558 0.50802,-0.320855c-0.014471,0.034935 -0.205292,0.328412 -0.534759,0.695186c-0.41713,0.464363 -0.775398,0.775401 -0.962564,0.962565c-0.026738,0.026738 -0.008032,0.017345 0.240641,-0.187166c0.648459,-0.533299 1.421712,-0.952475 2.19251,-1.310158c0.672578,-0.312104 1.014914,-0.58504 1.176468,-0.64171c0.02523,-0.008851 -0.006977,-0.023578 -0.133689,0.026738c-0.468876,0.186188 -0.864118,0.59726 -1.310159,0.802137c-0.284393,0.130629 -0.314705,0.077527 -0.294117,0c0.110659,-0.416693 0.465317,-0.784986 0.695187,-1.14973c0.225406,-0.357661 0.411133,-0.536906 0.454544,-0.64171c0.010232,-0.024703 0.021908,-0.03266 0.053476,-0.053476c0.120207,-0.079264 0.317801,-0.142359 0.534758,-0.213903c0.184864,-0.060961 0.39906,-0.114564 0.588235,-0.160427c0.132498,-0.032123 0.240641,-0.053476 0.320855,-0.053476c0.053476,0 0.161118,-0.008566 0.213903,0c0.08346,0.013544 0.217392,0.066513 0.347591,0.106952c0.194468,0.0604 0.36758,0.154741 0.588236,0.213903c0.157091,0.04212 0.351786,0.095713 0.50802,0.160428c0.110474,0.045759 0.163044,0.165122 0.213903,0.13369c0.022745,-0.014057 0.009436,-0.098238 -0.080214,-0.13369c-0.151245,-0.05981 -0.429237,-0.055719 -0.721924,-0.026738c-0.407022,0.040303 -0.932785,0.20556 -1.363635,0.267379c-0.265988,0.038164 -0.399034,0.063708 -0.374331,0.053476c0.034935,-0.01447 0.134017,-0.041647 0.347593,-0.053476c0.241751,-0.013389 0.508019,-0.053476 0.802136,-0.053476c0.213903,0 0.453346,0.041421 0.481283,0.13369c0.023245,0.076772 -0.06439,0.206965 -0.294117,0.374331c-0.252024,0.18361 -0.427807,0.213904 -0.427807,0.240641c0,0.026737 0.298248,0.016244 0.748661,-0.106952c0.432329,-0.11825 0.768721,-0.281748 0.855614,-0.213903c0.021074,0.016455 -0.135826,0.100704 -0.534758,0.240641c-0.510881,0.179208 -1.048519,0.384656 -1.604276,0.588234c-0.270405,0.099051 -0.31995,0.134564 -0.294117,0.106952c0.194179,-0.207557 0.547495,-0.494032 0.989303,-0.909089c0.220474,-0.207124 0.267179,-0.297384 0.240643,-0.294117c-0.109419,0.01347 -0.448448,0.173086 -0.882352,0.374331c-0.369456,0.171354 -0.577131,0.299164 -0.561497,0.320855c0.049439,0.068593 0.428384,0.001294 0.989303,0.026738c0.590055,0.026765 1.155638,0.044929 1.5508,0.240642c0.153421,0.075985 0.165539,0.24248 -0.053476,0.454544c-0.261271,0.252977 -0.672014,0.320253 -0.802137,0.508021c-0.01523,0.021976 0.032856,0.007229 0.160427,-0.106952c0.225405,-0.201747 0.594732,-0.527889 0.962566,-0.882351c0.299511,-0.288622 0.494476,-0.504773 0.50802,-0.588234c0.004284,-0.026393 0.026737,-0.053475 0.080214,-0.106952c0.026737,-0.026738 0.106951,-0.080214 0.160427,-0.080214c0.053476,0 0.089109,-0.006601 0.106951,0.026738c0.064331,0.120205 0.080214,0.320855 0.106953,0.561496c0.026737,0.240641 0.026737,0.454545 0.053474,0.614972c0.026739,0.160428 0.053478,0.294117 0.080215,0.427806c0.026739,0.13369 0.053474,0.240642 0.053474,0.347593c0,0.106952 0.020422,0.241759 0,0.427806c-0.026897,0.245039 -0.133904,0.549453 -0.320854,0.855614c-0.259195,0.424474 -0.587788,0.749078 -0.962564,1.149731c-0.400593,0.428252 -0.64171,0.748661 -0.828876,1.016041c-0.187164,0.267379 -0.340528,0.514315 -0.50802,0.695186c-0.205538,0.221954 -0.371351,0.37952 -0.50802,0.454545c-0.10482,0.057541 -0.09377,0.02048 -0.026737,-0.106952c0.089762,-0.170641 0.295845,-0.426517 0.534758,-0.748662c0.296268,-0.399482 0.786945,-1.062266 1.203207,-1.737965c0.440145,-0.714468 0.817892,-1.464414 0.989302,-1.92513c0.088449,-0.237738 0.072384,-0.286287 0.053476,-0.267379c-0.018908,0.018907 -0.156401,0.21709 -0.347593,0.454545c-0.261936,0.325314 -0.688395,0.835095 -1.203205,1.390372c-0.50148,0.540897 -1.195988,1.159381 -1.657751,1.497324c-0.263379,0.192755 -0.355342,0.266232 -0.347593,0.240641c0.027937,-0.092268 0.234262,-0.484882 0.50802,-0.962564c0.339737,-0.592807 0.803076,-1.38976 1.256681,-2.085558c0.348314,-0.534289 0.761919,-0.963517 0.64171,-1.042779c-0.031569,-0.020815 -0.065439,0.043028 -0.320854,0.347593c-0.477684,0.569604 -1.14509,1.368785 -2.005344,2.139034c-0.691482,0.619134 -1.21487,0.97432 -1.390371,1.122993c-0.028852,0.024442 -0.032328,-0.004001 0.160427,-0.267379c0.337944,-0.461764 0.861943,-1.191853 1.390372,-1.871655c0.489545,-0.629779 0.85085,-1.106544 1.096253,-1.283421c0.048502,-0.034959 0.034119,-0.020782 -0.053474,0.080214c-0.322079,0.371359 -0.887768,0.849515 -1.550799,1.443848c-0.62009,0.55584 -1.228735,1.103337 -1.470586,1.443848c-0.09028,0.127108 -0.077919,0.175924 -0.026738,0.160428c0.276806,-0.08381 0.677467,-0.487256 1.149731,-0.721924c0.440219,-0.218745 0.848842,-0.310927 0.962565,-0.240642c0.101717,0.062865 0.043541,0.462839 -0.187165,0.909089c-0.324415,0.627508 -0.758353,1.296006 -0.90909,1.737965c-0.071175,0.208683 -0.02622,0.274796 0.026738,0.26738c0.192774,-0.026999 0.406177,-0.207027 0.588234,-0.347593c0.165295,-0.127623 0.26738,-0.187165 0.347593,-0.187165c0.026738,0 0.038248,0.057033 0,0.160427c-0.06223,0.168222 -0.160427,0.294118 -0.187165,0.40107c-0.026738,0.106951 -0.048429,0.171532 -0.026738,0.187165c0.068593,0.049438 0.187165,-0.026738 0.320855,-0.026738c0.106952,0 0.187165,0 0.240642,0l0,0.026738l0,0.026737" id="svg_5" stroke-width="1.5" stroke="#000" fill="none"/>
  <path d="m12.203206,11.604257c0,0.053475 -0.138918,0.155396 -0.267379,0.294117c-0.167493,0.180871 -0.411406,0.472793 -0.695186,0.828876c-0.249962,0.313648 -0.447413,0.621194 -0.588235,0.775399c-0.050998,0.055844 -0.086356,0.106236 -0.080214,0.080215c0.027473,-0.116377 0.138487,-0.265205 0.294117,-0.614972c0.165563,-0.372089 0.331158,-0.769297 0.454545,-0.989304c0.058491,-0.104293 0.090309,-0.127547 -0.026738,0.053476c-0.197465,0.305396 -0.503146,0.678995 -0.775399,1.069516c-0.233411,0.334806 -0.391521,0.524545 -0.481283,0.695187c-0.067033,0.127432 -0.120146,0.183918 -0.133689,0.267379c-0.004283,0.026393 0.004283,0.053821 0,0.080214c-0.013544,0.083461 -0.053476,0.160428 -0.080214,0.240642c-0.026738,0.080214 -0.080215,0.13369 -0.13369,0.240641c-0.053476,0.106952 -0.117887,0.207924 -0.187166,0.347593c-0.063983,0.128991 -0.119218,0.195362 -0.133689,0.160428c-0.010233,-0.024703 -0.021228,-0.055815 -0.080214,-0.187166c-0.048985,-0.109082 -0.124215,-0.274117 -0.240642,-0.427806c-0.148854,-0.196495 -0.313542,-0.355444 -0.427807,-0.454545c-0.100996,-0.087593 -0.219138,-0.151039 -0.320855,-0.213903c-0.113723,-0.070285 -0.225948,-0.145735 -0.294117,-0.213903c-0.068168,-0.068169 -0.099308,-0.112612 -0.160427,-0.187165c-0.047946,-0.058486 -0.092259,-0.092259 -0.160428,-0.160428c-0.068168,-0.068169 -0.118997,-0.145734 -0.187166,-0.213902c-0.068169,-0.068169 -0.133689,-0.13369 -0.187165,-0.187166c-0.080214,-0.080214 -0.126045,-0.139349 -0.187165,-0.213903c-0.047946,-0.058485 -0.09051,-0.116898 -0.160428,-0.213902c-0.066329,-0.092028 -0.166383,-0.153049 -0.267379,-0.240642c-0.114264,-0.099101 -0.197968,-0.171432 -0.320855,-0.267379c-0.119218,-0.093082 -0.166383,-0.153049 -0.267379,-0.240642c-0.114264,-0.099101 -0.224706,-0.19817 -0.347593,-0.294117c-0.149023,-0.116353 -0.20209,-0.201051 -0.294117,-0.26738c-0.048502,-0.034958 -0.099308,-0.112612 -0.160428,-0.187165c-0.071919,-0.087728 -0.179651,-0.168722 -0.267379,-0.240642c-0.074553,-0.061119 -0.166087,-0.099307 -0.240641,-0.160427c-0.087728,-0.071919 -0.166316,-0.154943 -0.240641,-0.240642c-0.087594,-0.100997 -0.131485,-0.161942 -0.187166,-0.240641c-0.077215,-0.109136 -0.181681,-0.193053 -0.267379,-0.26738c-0.100996,-0.087594 -0.206259,-0.192825 -0.267379,-0.267379c-0.071919,-0.087728 -0.14154,-0.153114 -0.240641,-0.267379c-0.087594,-0.100996 -0.187165,-0.187166 -0.267379,-0.26738c-0.053476,-0.053475 -0.11158,-0.129752 -0.13369,-0.160427c-0.034959,-0.048503 -0.080214,-0.106952 -0.133689,-0.160428c-0.053476,-0.053475 -0.106952,-0.080214 -0.160428,-0.133689c-0.026738,-0.026738 -0.062732,-0.072339 -0.106952,-0.13369c-0.034959,-0.048503 -0.080213,-0.106952 -0.133689,-0.160428c-0.053476,-0.053475 -0.062733,-0.072338 -0.106952,-0.133689c-0.034959,-0.048503 -0.050204,-0.081979 -0.080214,-0.13369c-0.048388,-0.083382 -0.071993,-0.111925 -0.106952,-0.160428c-0.02211,-0.030675 -0.039005,-0.045279 -0.053476,-0.080214c-0.030697,-0.074108 -0.052277,-0.121635 -0.080214,-0.213903c-0.023245,-0.076772 -0.039739,-0.128977 -0.053476,-0.187165c-0.012286,-0.052045 -0.039932,-0.15718 -0.053476,-0.240642c-0.012849,-0.079178 -0.026738,-0.133689 -0.026738,-0.160427c0,-0.053476 -0.020595,-0.080929 -0.026738,-0.106952c-0.013736,-0.058188 -0.07368,-0.13409 -0.080214,-0.187165c-0.01347,-0.109417 -0.04491,-0.187856 -0.053476,-0.240641c-0.013544,-0.083461 -0.053476,-0.133689 -0.053476,-0.187165c0,-0.080214 0,-0.13369 0,-0.213903c0,-0.053476 0,-0.106952 0,-0.187165c0,-0.080214 0.013889,-0.134726 0.026738,-0.213903c0.013544,-0.083461 0.032733,-0.131092 0.053476,-0.187166c0.038248,-0.103395 0.055721,-0.1861 0.080214,-0.240641c0.058985,-0.131351 0.106952,-0.213903 0.13369,-0.294117c0.026738,-0.080214 0.065743,-0.098755 0.080214,-0.13369c0.020464,-0.049405 0,-0.080214 0.026738,-0.133689c0.026738,-0.053476 0.026738,-0.106952 0.053476,-0.160428c0.026738,-0.053476 0.050205,-0.108716 0.080214,-0.160428c0.048388,-0.083382 0.071993,-0.138663 0.106952,-0.187165c0.04422,-0.061351 0.055629,-0.119971 0.106952,-0.187165c0.058517,-0.076614 0.112481,-0.101943 0.160428,-0.160428c0.06112,-0.074554 0.08947,-0.099076 0.13369,-0.160428c0.034958,-0.048502 0.039419,-0.057469 0.053476,-0.080214c0.031432,-0.050858 0.053476,-0.053476 0.106952,-0.080214c0.053476,-0.026738 0.111925,-0.098731 0.160427,-0.13369c0.061351,-0.044219 0.145735,-0.092259 0.213903,-0.160428c0.068169,-0.068169 0.139349,-0.152784 0.213903,-0.213903c0.058485,-0.047946 0.082249,-0.09672 0.106952,-0.106952c0.034935,-0.014471 0.065743,-0.045279 0.080214,-0.080214c0.010232,-0.024702 0.039006,-0.018541 0.053476,-0.053476c0.010232,-0.024703 0,-0.053476 -0.026738,-0.053476c-0.026738,0 -0.053476,0 -0.13369,0.026738c-0.080214,0.026738 -0.212143,0.057334 -0.267379,0.080214c-0.078117,0.032357 -0.111925,0.045256 -0.160428,0.080214c-0.030675,0.02211 -0.096096,0.09393 -0.160428,0.133689c-0.071925,0.044452 -0.187165,0.080214 -0.294117,0.106952c-0.106952,0.026738 -0.174898,0.018541 -0.160428,0.053476c0.010232,0.024703 0.077234,-0.031928 0.213903,-0.106952c0.157231,-0.086311 0.348403,-0.185718 0.588234,-0.320855c0.187806,-0.105822 0.339638,-0.202232 0.481282,-0.267379c0.076817,-0.035331 0.15718,-0.093408 0.240641,-0.106952c0.026392,-0.004283 0.057734,0.01041 0.133689,-0.026738c0.086602,-0.042356 0.18083,-0.090389 0.347593,-0.187165c0.155134,-0.090028 0.278699,-0.14514 0.427807,-0.267379c0.058485,-0.047946 0.098755,-0.092481 0.13369,-0.106952c0.024703,-0.010232 0.053475,0 0.080214,0c0.080214,0 0.160428,0 0.267379,0c0.160428,0 0.268053,-0.003173 0.401069,0.026738c0.107557,0.024186 0.1847,0.040006 0.294117,0.053476c0.079613,0.009801 0.162463,-0.010232 0.187166,0c0.034935,0.01447 0.059581,-0.003959 0.133689,0.026738c0.034935,0.01447 0.107987,0.013889 0.187165,0.026738c0.083461,0.013544 0.156098,0.065923 0.294117,0.106952c0.130685,0.038849 0.249867,0.078041 0.374331,0.13369c0.122046,0.054568 0.214565,0.132063 0.347593,0.187165c0.188129,0.077926 0.349539,0.184008 0.481282,0.267379c0.162927,0.103105 0.268894,0.158222 0.347593,0.213903c0.109137,0.077215 0.195107,0.150102 0.267379,0.213903c0.089643,0.079136 0.168001,0.122119 0.213903,0.160428c0.10264,0.085661 0.13369,0.187165 0.213903,0.267379c0.080214,0.080214 0.158767,0.188431 0.240642,0.294117c0.10485,0.135343 0.219981,0.208153 0.320854,0.320855c0.114181,0.127571 0.193244,0.234891 0.294118,0.347593c0.114182,0.127571 0.226531,0.25327 0.347592,0.374331c0.121061,0.121061 0.255176,0.197918 0.374331,0.320855c0.093044,0.095998 0.168721,0.152914 0.240641,0.240641c0.06112,0.074554 0.092481,0.125493 0.106952,0.160428c0.010232,0.024703 -0.000715,0.047333 -0.026738,0.053476c-0.116377,0.027473 -0.201858,0.152407 -0.401069,0.267379c-0.279818,0.161493 -0.543297,0.318188 -0.748661,0.454545c-0.249042,0.165357 -0.461553,0.229218 -0.64171,0.347593c-0.11173,0.073413 -0.179652,0.141984 -0.26738,0.213903c-0.074554,0.06112 -0.160427,0.13369 -0.267379,0.240641c-0.106952,0.106952 -0.235947,0.163045 -0.267379,0.213903c-0.014057,0.022745 0.02763,-0.079579 0.160427,-0.267379c0.188437,-0.266485 0.457603,-0.612875 0.695186,-0.962565c0.162532,-0.239225 0.347593,-0.50802 0.454545,-0.668448c0.053475,-0.080214 0.080214,-0.133689 0.053475,-0.133689c-0.053475,0 -0.158493,0.032934 -0.320855,0.080214c-0.211694,0.061645 -0.428138,0.066795 -0.695186,0.053476c-0.268379,-0.013385 -0.48362,-0.101442 -0.614972,-0.160428c-0.109081,-0.048985 -0.164918,-0.104822 -0.213903,-0.213903c-0.058986,-0.131351 -0.093388,-0.268029 -0.080214,-0.401069c0.013434,-0.135674 0.078588,-0.294779 0.13369,-0.427806c0.077926,-0.18813 0.120131,-0.300374 0.187165,-0.427807c0.044882,-0.085321 0.088045,-0.152596 0.106952,-0.13369c0.05672,0.05672 -0.01163,0.241003 0,0.427807c0.013395,0.215151 0.08363,0.490358 0.187165,0.721924c0.087988,0.196794 0.228828,0.33474 0.320855,0.401069c0.097005,0.069917 0.241747,0.102867 0.347593,0.13369c0.162361,0.04728 0.289404,0.093215 0.347592,0.106952c0.052046,0.012287 0.095635,-0.04278 0.026738,-0.160428c-0.124574,-0.212718 -0.502754,-0.376328 -0.721924,-0.588234c-0.150132,-0.145156 -0.261,-0.324647 -0.374331,-0.50802c-0.101366,-0.164014 -0.240642,-0.320855 -0.374331,-0.454545c-0.106952,-0.106952 -0.184981,-0.190164 -0.294117,-0.267379c-0.078699,-0.055681 -0.180394,-0.143619 -0.294117,-0.213903c-0.101717,-0.062865 -0.237327,-0.089389 -0.374331,-0.13369c-0.104895,-0.033918 -0.160427,-0.053476 -0.267379,-0.080214c-0.106952,-0.026738 -0.240642,-0.053476 -0.401069,-0.053476c-0.160427,0 -0.294117,-0.026738 -0.454545,-0.026738c-0.133689,0 -0.240641,0 -0.374331,0c-0.13369,0 -0.213903,0 -0.294117,0c-0.106952,0 -0.187165,0.053476 -0.320855,0.13369c-0.13369,0.080214 -0.240642,0.160428 -0.401069,0.240641c-0.106952,0.053476 -0.219859,0.12631 -0.320855,0.213903c-0.114264,0.099101 -0.213903,0.213903 -0.320855,0.320855c-0.106952,0.106952 -0.221501,0.206715 -0.347593,0.347593c-0.114181,0.127571 -0.248075,0.233536 -0.401069,0.401069c-0.140822,0.154205 -0.240641,0.294117 -0.401069,0.454545c-0.187165,0.187165 -0.384968,0.364267 -0.561496,0.561496c-0.114181,0.12757 -0.172417,0.262183 -0.213903,0.374331c-0.038249,0.103395 -0.06667,0.183918 -0.080214,0.267379c-0.017132,0.10557 -0.016441,0.22385 0.053476,0.320855c0.088439,0.122703 0.160428,0.187166 0.294117,0.320855c0.13369,0.133689 0.294117,0.294117 0.454545,0.427807c0.160427,0.133689 0.332175,0.252091 0.481282,0.374331c0.087728,0.071919 0.146691,0.128977 0.160428,0.187166c0.006143,0.026022 0.007137,-0.00097 0,-0.026738c-0.041617,-0.15025 -0.24487,-0.301124 -0.320855,-0.454545c-0.048928,-0.098791 -0.026738,-0.267379 -0.026738,-0.427806c0,-0.160428 -0.005463,-0.35003 0.080214,-0.534759c0.075467,-0.162714 0.165662,-0.31796 0.267379,-0.50802c0.084634,-0.15814 0.220082,-0.288993 0.374331,-0.481283c0.167306,-0.208567 0.363854,-0.413245 0.64171,-0.64171c0.309793,-0.254725 0.608707,-0.490991 0.935827,-0.695186c0.315104,-0.196694 0.591756,-0.341441 0.828876,-0.481282c0.217275,-0.128138 0.357629,-0.239038 0.50802,-0.320855c0.148546,-0.080813 0.24893,-0.115975 0.320855,-0.160428c0.032166,-0.01988 0.026738,0 0.026738,0.026738c0,0.026738 0,0.053476 0,0.160428c0,0.13369 0.010072,0.291104 0.053476,0.454545c0.034993,0.13177 0.052741,0.257954 0.080214,0.374331c0.018429,0.078068 0.026738,0.13369 0.026738,0.187166c0,0.026738 -0.053476,0.080214 -0.160428,0.133689c-0.106952,0.053476 -0.23665,0.085831 -0.347593,0.160428c-0.12938,0.086995 -0.269816,0.128227 -0.454545,0.213903c-0.162714,0.075467 -0.321665,0.185718 -0.561496,0.320855c-0.187807,0.105823 -0.356472,0.226419 -0.534759,0.347593c-0.141597,0.096238 -0.292463,0.189267 -0.427807,0.294117c-0.105686,0.081874 -0.179522,0.166087 -0.240641,0.240641c-0.071919,0.087728 -0.139306,0.156437 -0.213903,0.267379c-0.086995,0.129379 -0.213903,0.294117 -0.347593,0.481283c-0.133689,0.187165 -0.265388,0.337449 -0.320855,0.50802c-0.050296,0.154668 -0.093517,0.292133 -0.106952,0.427806c-0.007904,0.079823 -0.017132,0.188547 0,0.294117c0.013544,0.083461 0.051271,0.161942 0.106952,0.240641c0.077216,0.109137 0.139306,0.236651 0.213903,0.347593c0.086995,0.12938 0.182654,0.300014 0.320855,0.401069c0.15564,0.113807 0.267379,0.187165 0.374331,0.240642c0.106952,0.053475 0.191476,0.100171 0.320855,0.187165c0.110942,0.074597 0.213903,0.13369 0.347593,0.213903c0.133689,0.080214 0.240641,0.160427 0.374331,0.294117c0.13369,0.13369 0.267379,0.267379 0.401069,0.401069c0.106952,0.106952 0.170098,0.22207 0.240642,0.347593c0.065498,0.116546 0.124899,0.219587 0.213903,0.347592c0.097739,0.140566 0.240641,0.26738 0.320855,0.374331c0.080214,0.106952 0.168278,0.206591 0.267379,0.320855c0.087594,0.100996 0.139809,0.179935 0.267379,0.294117c0.112702,0.100874 0.199584,0.172846 0.294117,0.267379c0.094533,0.094533 0.193284,0.179935 0.320855,0.294117c0.112702,0.100874 0.228437,0.197918 0.347593,0.320855c0.093044,0.095998 0.171414,0.205678 0.294117,0.294117c0.097005,0.069918 0.163984,0.068703 0.26738,0.106952c0.056074,0.020743 0.106952,0.080214 0.187165,0.106952c0.080214,0.026738 0.133689,0.026738 0.187165,0.026738c0.053475,0 0.08947,0.007875 0.133689,-0.053476c0.069917,-0.097005 0.118356,-0.265125 0.160428,-0.50802c0.036792,-0.212405 0.039823,-0.434865 -0.080214,-0.641709c-0.048388,-0.083383 -0.091201,-0.152203 -0.213903,-0.240642c-0.097005,-0.069917 -0.227409,-0.135002 -0.374331,-0.187165c-0.17817,-0.063258 -0.344279,-0.062651 -0.481283,-0.106952c-0.104896,-0.033918 -0.187165,-0.080214 -0.267379,-0.080214c-0.026738,0 -0.053476,0 -0.080214,0c-0.053476,0 -0.090446,-0.002035 -0.080215,-0.026738c0.014471,-0.034935 0.12044,-0.122094 0.240642,-0.213903c0.171313,-0.130848 0.400204,-0.190291 0.588234,-0.240642c0.106491,-0.028516 0.162463,-0.036969 0.187166,-0.026737c0.034934,0.01447 0.053475,0.053475 0.053475,0.080214c0,0.026738 0.017861,0.113084 -0.026738,0.213903c-0.039001,0.088163 -0.061307,0.141521 -0.080214,0.160427c-0.018907,0.018907 -0.081015,0.013068 -0.187165,0c-0.109417,-0.01347 -0.226322,-0.092632 -0.320855,-0.187165c-0.094533,-0.094533 -0.223747,-0.237288 -0.401069,-0.347593c-0.223605,-0.139096 -0.492301,-0.186323 -0.588234,-0.240641c-0.098715,-0.055892 -0.199211,-0.145735 -0.267379,-0.213903c-0.068168,-0.068169 -0.141406,-0.156906 -0.187165,-0.26738c-0.032357,-0.078116 -0.057426,-0.185652 -0.106952,-0.320854c-0.058166,-0.158788 -0.095714,-0.298312 -0.160428,-0.454545c-0.068639,-0.165709 -0.180385,-0.298427 -0.267379,-0.427807c-0.074597,-0.110942 -0.219563,-0.206259 -0.294117,-0.267379c-0.087728,-0.071919 -0.216034,-0.183101 -0.320855,-0.240642c-0.13667,-0.075025 -0.336101,-0.183686 -0.534759,-0.267379c-0.179386,-0.075574 -0.345409,-0.10995 -0.454545,-0.187165c-0.078699,-0.055681 -0.152784,-0.166088 -0.213903,-0.240642c-0.071919,-0.087728 -0.146691,-0.128977 -0.160428,-0.187166c-0.012286,-0.052045 0,-0.133689 0,-0.213903c0,-0.106952 0.040038,-0.231854 0.106952,-0.347593c0.101921,-0.176288 0.252091,-0.38565 0.374331,-0.534758c0.143839,-0.175455 0.367814,-0.357221 0.561496,-0.481283c0.181522,-0.116272 0.370347,-0.195684 0.534758,-0.267379c0.209405,-0.091315 0.430496,-0.144058 0.64171,-0.187165c0.190723,-0.038925 0.401521,-0.131106 0.561496,-0.160428c0.134103,-0.024579 0.273485,-0.049517 0.347593,-0.080214c0.034935,-0.014471 0.072017,-0.039006 0.106952,-0.053476c0.024703,-0.010232 0.07407,-0.026023 0.080214,0c0.013737,0.058188 0.117665,0.15252 0.213903,0.294117c0.121175,0.178287 0.206591,0.328706 0.320855,0.427807c0.100996,0.087594 0.213903,0.133689 0.320855,0.187165c0.053475,0.026738 0.053475,0.053476 0.053475,0.080214c0,0.026738 -0.004559,0.075901 -0.080214,0.160428c-0.114182,0.127571 -0.285436,0.33104 -0.534759,0.534759c-0.207051,0.169178 -0.48033,0.375424 -0.695186,0.561496c-0.186345,0.16138 -0.326385,0.289108 -0.374331,0.347593c-0.06112,0.074553 -0.069804,0.137949 -0.106952,0.213903c-0.042356,0.086602 -0.13369,0.187165 -0.213903,0.320855c-0.080214,0.13369 -0.167164,0.264184 -0.240642,0.427807c-0.058985,0.131351 -0.119953,0.262666 -0.133689,0.320855c-0.006143,0.026022 0,0 0,-0.080215c0,-0.213903 0,-0.454544 0,-0.721924c0,-0.213903 -0.028814,-0.469464 -0.133689,-0.614972c-0.044219,-0.061351 -0.073826,-0.118072 -0.160428,-0.160428c-0.075955,-0.037148 -0.126918,-0.090143 -0.240641,-0.160428c-0.152575,-0.094297 -0.219859,-0.153048 -0.320855,-0.240641c-0.057132,-0.049551 -0.060009,-0.107352 -0.053476,-0.160428c0.01347,-0.109417 0.081728,-0.18496 0.160428,-0.240641c0.109136,-0.077216 0.155418,-0.112481 0.213903,-0.160428c0.074554,-0.06112 0.133689,-0.106952 0.187165,-0.13369c0.053476,-0.026738 0.133689,-0.026738 0.187165,-0.026738c0.053476,0 0.053476,0.026738 0.053476,0.053476c0,0.106952 0,0.240641 0,0.374331c0,0.213903 -0.016321,0.538199 0.053476,0.828876c0.065176,0.271437 0.148238,0.542878 0.294117,0.748662c0.099012,0.139672 0.171627,0.225103 0.213903,0.26738c0.042276,0.042276 0.092482,0.045279 0.106952,0.080214c0.010232,0.024703 0.022026,0.066477 0.080214,0.080214c0.026022,0.006144 0.106952,0 0.187165,0c0.106952,0 0.213298,0.002552 0.320855,0.026738c0.133016,0.029911 0.292606,0.085817 0.481283,0.13369c0.238939,0.060626 0.50802,0.106952 0.775399,0.106952c0.240642,0 0.481282,-0.026738 0.668447,-0.026738c0.187166,0 0.320856,0 0.40107,0c0.053475,0 0.080214,0 0.106952,0c0.080214,0 0.183918,0.013194 0.267379,0.026738c0.026393,0.004283 0.053476,0.026737 0.080214,0.080214l0.106952,0.080214l0.080214,0.026738l0.080215,0.026737" id="svg_6" stroke-width="1.5" stroke="#000" fill="none"/>
 </g>
</svg>